<svg width="32" height="33" viewBox="0 0 32 33" fill="none" xmlns="http://www.w3.org/2000/svg">
<path fill-rule="evenodd" clip-rule="evenodd" d="M0 16.6181C0 7.84295 7.16344 0.729248 16 0.729248C24.8366 0.729248 32 7.84295 32 16.6181C32 25.3933 24.8366 32.507 16 32.507C7.16344 32.507 0 25.3933 0 16.6181ZM22.1 12.1494C22.8 12.0501 23.4 11.9508 24 11.6529C23.6 12.348 23 12.9438 22.3 13.3411C22.5 18.0084 19.1 23.073 13 23.073C11.2 23.073 9.5 22.4772 8 21.5834C9.7 21.782 11.5 21.2855 12.7 20.3917C11.2 20.3917 10 19.3987 9.6 18.1077C10.1 18.207 10.6 18.1077 11.1 18.0084C9.6 17.6112 8.5 16.2209 8.5 14.7313C9 14.9299 9.5 15.1286 10 15.1286C8.6 14.1355 8.1 12.2487 9 10.7591C10.7 12.7452 13.1 14.0362 15.8 14.1355C15.3 12.1494 16.9 10.1633 19 10.1633C19.9 10.1633 20.8 10.5605 21.4 11.1563C22.2 10.9577 22.9 10.7591 23.5 10.3619C23.3 11.1563 22.8 11.7522 22.1 12.1494Z" fill="#696984"/>
</svg>
